<svg width="145" height="116" viewBox="0 0 145 116" fill="none" xmlns="http://www.w3.org/2000/svg">
<g clip-path="url(#clip0_121_117)">
<path d="M0.0573203 37.8133L0.00974219 15.404C0.00453125 13.0817 2.15416 11.3531 4.42023 11.8583L12.4768 13.6481C13.6546 13.9096 14.7485 14.461 15.6593 15.2523C16.57 16.0435 17.2688 17.0497 17.6923 18.1794L21.5461 28.7961L50.5914 37.5188L41.1891 4.62189C40.532 2.30642 42.2766 0.000244141 44.6781 0.000244141H53.7633C56.3687 0.000244141 58.793 1.41286 60.0844 3.69525L84.7797 47.6234L109.09 54.7828C112.692 55.8477 116.045 57.6149 118.991 59.9711L126.784 66.2016C132.245 70.5516 130.885 79.1836 124.36 81.6758C115.026 85.2102 104.83 85.7539 95.1789 83.2391L27.5727 65.6578C25.0578 65.0008 22.7695 63.6867 20.9344 61.8289L2.1605 42.9109C0.816985 41.5516 0.0613984 39.7164 0.0573203 37.8133ZM137.75 101.5C141.76 101.5 145 104.74 145 108.75C145 112.76 141.76 116 137.75 116H7.25C3.24664 116 0 112.76 0 108.75C0 104.74 3.24664 101.5 7.25 101.5H137.75ZM43.5 83.375C43.5 87.3852 40.2602 90.625 36.25 90.625C32.2398 90.625 29 87.3852 29 83.375C29 79.3649 32.2398 76.125 36.25 76.125C40.2602 76.125 43.5 79.3649 43.5 83.375ZM50.75 87C50.75 82.9899 53.9898 79.75 58 79.75C62.0102 79.75 65.25 82.9899 65.25 87C65.25 91.0102 62.0102 94.25 58 94.25C53.9898 94.25 50.75 91.0102 50.75 87Z" fill="white"/>
</g>
<defs>
<clipPath id="clip0_121_117">
<rect width="145" height="116" fill="white"/>
</clipPath>
</defs>
</svg>
