<svg width="134" height="134" viewBox="0 0 134 134" fill="none" xmlns="http://www.w3.org/2000/svg">
<path d="M86.5417 30.7083C92.6833 30.7083 97.7083 25.6833 97.7083 19.5417C97.7083 13.4 92.6833 8.375 86.5417 8.375C80.4 8.375 75.375 13.4 75.375 19.5417C75.375 25.6833 80.4 30.7083 86.5417 30.7083ZM27.9167 122.833C43.55 122.833 55.8333 110.55 55.8333 94.9167C55.8333 79.2833 43.55 67 27.9167 67C12.2833 67 0 79.2833 0 94.9167C0 110.55 12.2833 122.833 27.9167 122.833ZM27.9167 75.375C38.525 75.375 47.4583 84.3083 47.4583 94.9167C47.4583 105.525 38.525 114.458 27.9167 114.458C17.3083 114.458 8.375 105.525 8.375 94.9167C8.375 84.3083 17.3083 75.375 27.9167 75.375ZM43.55 62.5333L61.4167 78.1667V106.083H72.5833V71.4667L60.3 58.625L73.7 45.225L78.1667 49.6917C85.425 56.95 94.9167 61.4167 106.642 61.4167V50.25C98.2667 50.25 91.5667 46.9 86.5417 41.875L75.9333 31.2667C73.1417 29.0333 70.35 27.9167 67 27.9167C63.65 27.9167 60.8583 29.0333 59.1833 31.2667L43.55 46.9C41.3167 49.1333 40.2 51.925 40.2 54.7167C40.2 58.0667 41.3167 60.8583 43.55 62.5333ZM106.083 67C90.45 67 78.1667 79.2833 78.1667 94.9167C78.1667 110.55 90.45 122.833 106.083 122.833C121.717 122.833 134 110.55 134 94.9167C134 79.2833 121.717 67 106.083 67ZM106.083 114.458C95.475 114.458 86.5417 105.525 86.5417 94.9167C86.5417 84.3083 95.475 75.375 106.083 75.375C116.692 75.375 125.625 84.3083 125.625 94.9167C125.625 105.525 116.692 114.458 106.083 114.458Z" fill="white"/>
</svg>
