<svg width="36" height="36" viewBox="0 0 36 36" fill="none" xmlns="http://www.w3.org/2000/svg">
<path d="M31.5 29.355L29.3595 31.497L19.6965 21.834L21.8415 19.692L31.5 29.355ZM19.68 4.50001C15.81 4.50001 11.94 5.97001 8.96998 8.92501L8.95498 8.94001C3.02998 14.865 3.02998 24.48 8.95498 30.405L30.405 8.94001C28.9976 7.53032 27.3257 6.41243 25.4852 5.6505C23.6448 4.88857 21.6719 4.49759 19.68 4.50001V4.50001ZM9.20998 25.905C8.29892 24.3795 7.7352 22.6719 7.55891 20.9038C7.38261 19.1357 7.59808 17.3504 8.18998 15.675C8.47498 18.54 9.52498 21.36 11.295 23.835L9.20998 25.905ZM13.47 21.645C11.445 18.57 10.68 14.895 11.4 11.4C12.27 11.22 13.14 11.13 14.025 11.13C16.725 11.13 19.35 11.955 21.645 13.47L13.47 21.645ZM15.675 8.19001C17.3504 7.59811 19.1356 7.38264 20.9038 7.55894C22.6719 7.73523 24.3794 8.29895 25.905 9.21001L23.82 11.295C21.4238 9.56456 18.6151 8.49383 15.675 8.19001V8.19001Z" fill="black"/>
</svg>
