<svg width="34" height="34" viewBox="0 0 34 34" fill="none" xmlns="http://www.w3.org/2000/svg">
<path d="M17.0005 5.3125L16.4923 5.652L1.86282 15.1579L0 16.3462L1.82923 17.4923V28.9496C1.1812 29.4222 0.745562 30.2805 0.745562 31.284C0.745562 32.0043 0.973905 32.6952 1.38036 33.2045C1.78681 33.7139 2.33808 34 2.91289 34C3.4877 34 4.03897 33.7139 4.44543 33.2045C4.85188 32.6952 5.08022 32.0043 5.08022 31.284C5.08022 30.2818 4.64459 29.4222 3.99656 28.9496V18.8924L6.16389 20.2925V27.2101C6.16389 27.8089 6.38387 28.3508 6.63853 28.6957C6.89211 29.0406 7.20096 29.247 7.51847 29.4589C8.15783 29.8785 8.9164 30.1759 9.85485 30.4353C11.735 30.9608 14.2404 31.284 17.0005 31.284C19.7606 31.284 22.2672 30.9608 24.1462 30.4353C25.0858 30.1759 25.8433 29.8785 26.4826 29.4589C26.8001 29.247 27.109 29.0406 27.3636 28.6957C27.6611 28.2897 27.8296 27.7612 27.8372 27.2101V20.2925L32.1383 17.5344L34 16.3462L32.1383 15.1579L17.5088 5.652L17.0005 5.3125ZM17.0005 8.36797L29.26 16.3462L27.329 17.5765C27.0819 17.266 26.796 17.0083 26.4826 16.8133C25.8476 16.3937 25.0847 16.0963 24.1462 15.8369C22.2715 15.3114 19.7736 14.9882 17.0005 14.9882C14.2274 14.9882 11.7307 15.3114 9.85485 15.8369C8.91531 16.0963 8.1535 16.3937 7.51847 16.8133C7.20508 17.0083 6.9192 17.266 6.67213 17.5765L4.74104 16.3462L17.0005 8.36797ZM17.0005 17.7041C19.6458 17.7041 22.0255 18.007 23.6716 18.4687C24.493 18.6955 25.153 18.9616 25.5008 19.1884C25.6103 19.2631 25.6276 19.3174 25.6699 19.3595V24.5362C25.1723 24.3101 24.6633 24.1259 24.1462 23.9848C22.2661 23.4593 19.7606 23.1361 17.0005 23.1361C14.2404 23.1361 11.7339 23.4593 9.85485 23.9848C9.27943 24.1437 8.78419 24.3298 8.33122 24.5362V19.3609C8.37457 19.3188 8.39082 19.2658 8.50027 19.1911C8.84704 18.963 9.50808 18.6968 10.3295 18.47C11.9767 18.007 14.3553 17.7041 17.0005 17.7041ZM17.0005 25.8521C19.6295 25.8521 22.0212 26.1549 23.6716 26.6166C24.1829 26.7511 24.6821 26.95 25.1616 27.2101C24.6822 27.4706 24.183 27.6699 23.6716 27.8049C22.0212 28.2666 19.6295 28.568 17.0005 28.568C14.3716 28.568 11.9799 28.2652 10.3295 27.8035C9.81816 27.669 9.31895 27.4702 8.83946 27.2101C9.31891 26.9495 9.81812 26.7502 10.3295 26.6153C11.9799 26.1549 14.3716 25.8521 17.0005 25.8521Z" fill="black"/>
</svg>
