<svg width="133" height="133" viewBox="0 0 133 133" fill="none" xmlns="http://www.w3.org/2000/svg">
<path d="M99.75 43.3081V85.3527C96.5806 83.5229 92.8959 82.7899 89.2675 83.2676C85.639 83.7453 82.2696 85.407 79.6818 87.9948C77.094 90.5827 75.4324 93.9521 74.9547 97.5806C74.4771 101.209 75.21 104.894 77.04 108.063C78.8699 111.232 81.6945 113.71 85.0757 115.11C88.4568 116.51 92.2057 116.756 95.7407 115.809C99.2757 114.862 102.399 112.774 104.627 109.871C106.855 106.967 108.063 103.41 108.063 99.75V16.0099C108.064 14.9428 107.808 13.8912 107.318 12.9437C106.827 11.9962 106.115 11.1807 105.243 10.5661C104.371 9.95149 103.364 9.55577 102.306 9.41238C101.249 9.26898 100.173 9.38212 99.1682 9.74224L45.9681 28.7446C44.6785 29.207 43.5631 30.0565 42.7745 31.1769C41.9859 32.2972 41.5626 33.6338 41.5625 35.0039V93.6569C38.3934 91.8272 34.7091 91.0943 31.081 91.5717C27.4529 92.0491 24.0837 93.7103 21.4958 96.2975C18.9079 98.8848 17.2459 102.254 16.7676 105.882C16.2893 109.51 17.0214 113.194 18.8504 116.364C20.6793 119.533 23.5029 122.011 26.8834 123.412C30.2638 124.814 34.0121 125.06 37.5472 124.115C41.0822 123.169 44.2064 121.083 46.4353 118.181C48.6642 115.278 49.8733 111.722 49.875 108.062V61.1218L99.75 43.3164V43.3081Z" fill="white"/>
</svg>
